<svg xmlns="http://www.w3.org/2000/svg" id="Capa_1" data-name="Capa 1" viewBox="0 0 247 86"><defs><style>.cls-1{fill:#00a6ce;}.cls-2{fill:#002f87;}</style></defs><path class="cls-1" d="M3.34,69A3.23,3.23,0,0,1,4,69a2.93,2.93,0,0,1,.45.15,1.13,1.13,0,0,1,.32.22,1.13,1.13,0,0,1-.23.34,1.53,1.53,0,0,1-.16.13,1.26,1.26,0,0,0-.25-.19,2.27,2.27,0,0,0-.33-.13,1.65,1.65,0,0,0-.48-.06,1.08,1.08,0,0,0-.78.28,1.18,1.18,0,0,0-.31.92,1.73,1.73,0,0,0,.08.55.86.86,0,0,0,.23.36,1.18,1.18,0,0,0,.4.22,2.62,2.62,0,0,0,.55.13,2.42,2.42,0,0,1,.63.16,1.39,1.39,0,0,1,.49.34A1.73,1.73,0,0,1,5,73a2.57,2.57,0,0,1,.11.78,2.1,2.1,0,0,1-.15.84,1.57,1.57,0,0,1-.41.56,1.66,1.66,0,0,1-.64.31,2.87,2.87,0,0,1-.8.1,3.2,3.2,0,0,1-.77-.07,2.25,2.25,0,0,1-.47-.17.85.85,0,0,1-.32-.26.82.82,0,0,1,.11-.17.64.64,0,0,1,.14-.15,1,1,0,0,1,.2-.14.67.67,0,0,0,.23.21,1.59,1.59,0,0,0,.34.14,1.66,1.66,0,0,0,.53.07A1.72,1.72,0,0,0,3.57,75,1.18,1.18,0,0,0,4,74.75a1.07,1.07,0,0,0,.28-.4,1.4,1.4,0,0,0,.1-.56,1.63,1.63,0,0,0-.09-.59A1,1,0,0,0,4,72.8a1.18,1.18,0,0,0-.43-.23A2.93,2.93,0,0,0,3,72.44,1.73,1.73,0,0,1,2,72a1.65,1.65,0,0,1-.4-1.22,2.12,2.12,0,0,1,.14-.8,1.71,1.71,0,0,1,.39-.55,1.57,1.57,0,0,1,.57-.31A2.56,2.56,0,0,1,3.34,69Z"></path><path class="cls-1" d="M6.4,72a6.81,6.81,0,0,1,.12-1.36,2.44,2.44,0,0,1,.37-.94,1.58,1.58,0,0,1,.7-.55A2.76,2.76,0,0,1,8.66,69a2,2,0,0,1,1.73.72,3.88,3.88,0,0,1,.54,2.3v.34a6.91,6.91,0,0,1-.12,1.35,2.86,2.86,0,0,1-.38,1,1.82,1.82,0,0,1-.7.65,2.2,2.2,0,0,1-1.07.23,2,2,0,0,1-1-.23,1.92,1.92,0,0,1-.71-.65,3.31,3.31,0,0,1-.4-1,6.87,6.87,0,0,1-.13-1.35Zm.71.34a4.25,4.25,0,0,0,.38,2,1.23,1.23,0,0,0,1.17.73,1.3,1.3,0,0,0,.73-.19,1.51,1.51,0,0,0,.49-.54,2.66,2.66,0,0,0,.26-.85,6.65,6.65,0,0,0,.08-1.14V72a5.64,5.64,0,0,0-.1-1.18,2.1,2.1,0,0,0-.29-.77,1.17,1.17,0,0,0-.49-.42,1.59,1.59,0,0,0-.68-.13,1.7,1.7,0,0,0-.73.13,1.08,1.08,0,0,0-.48.42,2.11,2.11,0,0,0-.26.77A6.62,6.62,0,0,0,7.11,72Z"></path><path class="cls-1" d="M13,72.42a4.2,4.2,0,0,0,.36,2,1.26,1.26,0,0,0,1.2.66A3,3,0,0,0,15,75l.33-.07a1.56,1.56,0,0,0,.26-.11l.19.16.13.15a1,1,0,0,1,.1.16,2.21,2.21,0,0,1-.37.14,3.61,3.61,0,0,1-.46.1,4.06,4.06,0,0,1-.64,0,2.46,2.46,0,0,1-1.07-.21,1.74,1.74,0,0,1-.7-.62,3,3,0,0,1-.38-1,6.88,6.88,0,0,1-.12-1.36v-.34a6.81,6.81,0,0,1,.12-1.36,2.77,2.77,0,0,1,.38-1,1.65,1.65,0,0,1,.7-.58A2.63,2.63,0,0,1,14.58,69a3.79,3.79,0,0,1,.62,0l.44.08a2.2,2.2,0,0,1,.34.13,1.74,1.74,0,0,1-.11.18l-.11.13-.13.12-.26-.07a1.39,1.39,0,0,0-.34-.06,3,3,0,0,0-.45,0,1.52,1.52,0,0,0-.71.15,1.24,1.24,0,0,0-.49.45,2.35,2.35,0,0,0-.27.8A6.47,6.47,0,0,0,13,72.07Z"></path><path class="cls-1" d="M18.12,75.52a.47.47,0,0,1-.16,0h-.37l-.17,0V69h.7Z"></path><path class="cls-1" d="M19.92,69h3v.07a.25.25,0,0,0,0,.08v.24a.34.34,0,0,0,0,.09v.06H20.59V71.9h2.05a.68.68,0,0,1,0,.14v.12s0,.1,0,.14,0,.08,0,.11H20.59V75h2.34a.62.62,0,0,1,0,.13v.26a.45.45,0,0,0,0,.11h-3Z"></path><path class="cls-1" d="M24.47,75.52V69h1.12a3,3,0,0,1,1.37.28,2.64,2.64,0,0,1,.92.72,3.06,3.06,0,0,1,.51,1,4.08,4.08,0,0,1,.16,1.14,5,5,0,0,1-.06.77,4.13,4.13,0,0,1-.19.77,3.52,3.52,0,0,1-.35.7,2.52,2.52,0,0,1-.55.58,2.38,2.38,0,0,1-.78.39,3.25,3.25,0,0,1-1,.14Zm1-.5a2.4,2.4,0,0,0,1.18-.26,2.15,2.15,0,0,0,.73-.67,2.71,2.71,0,0,0,.36-.91,5.84,5.84,0,0,0,.1-1,3.27,3.27,0,0,0-.15-1,2.39,2.39,0,0,0-.43-.84,2.11,2.11,0,0,0-.73-.58,2.51,2.51,0,0,0-1.06-.21h-.33V75Z"></path><path class="cls-1" d="M33.19,75.52c0-.35-.11-.69-.17-1l-.18-1H30.63c-.07.31-.13.63-.18,1s-.1.67-.16,1h-.65c.14-1,.31-1.88.5-2.68s.38-1.48.55-2,.41-1.26.61-1.78l.26,0h.65c.19.52.39,1.11.58,1.78s.36,1.25.55,2,.36,1.69.52,2.68h-.67Zm-1.47-6c-.1.28-.21.6-.32,1s-.2.68-.32,1.12-.23.93-.35,1.47h2q-.18-.81-.36-1.47c-.11-.44-.22-.81-.31-1.12l-.3-1Z"></path><path class="cls-1" d="M35.23,75.52V69h1.12a3,3,0,0,1,1.36.28,2.55,2.55,0,0,1,.92.72,2.72,2.72,0,0,1,.51,1,4.08,4.08,0,0,1,.16,1.14,5,5,0,0,1-.06.77,4.13,4.13,0,0,1-.19.77,3.52,3.52,0,0,1-.35.7,2.52,2.52,0,0,1-.55.58,2.38,2.38,0,0,1-.78.39,3.19,3.19,0,0,1-1,.14Zm1-.5a2.43,2.43,0,0,0,1.18-.26,2,2,0,0,0,.72-.67,2.35,2.35,0,0,0,.36-.91,5,5,0,0,0,.1-1,3.61,3.61,0,0,0-.14-1,2.57,2.57,0,0,0-.43-.84,2.15,2.15,0,0,0-.74-.58,2.46,2.46,0,0,0-1-.21H35.9V75Z"></path><path class="cls-1" d="M43.81,69h2a1.07,1.07,0,0,1,.59.17,1.66,1.66,0,0,1,.44.47,2.2,2.2,0,0,1,.27.68,3.59,3.59,0,0,1,.1.81,3.32,3.32,0,0,1-.1.77,2.35,2.35,0,0,1-.27.67,1.81,1.81,0,0,1-.44.47,1.06,1.06,0,0,1-.58.17H44.49v2.3h-.68Zm1.86,3.71a.64.64,0,0,0,.42-.14,1,1,0,0,0,.27-.36,1.55,1.55,0,0,0,.16-.5,2.78,2.78,0,0,0,0-.58,3,3,0,0,0,0-.61,1.47,1.47,0,0,0-.16-.5,1,1,0,0,0-.27-.35.7.7,0,0,0-.42-.13H44.49v3.17Z"></path><path class="cls-1" d="M48.52,72a6.86,6.86,0,0,1,.11-1.36A2.44,2.44,0,0,1,49,69.7a1.5,1.5,0,0,1,.69-.55A2.76,2.76,0,0,1,50.77,69a2,2,0,0,1,1.73.72A3.88,3.88,0,0,1,53,72v.34a6.91,6.91,0,0,1-.12,1.35,2.86,2.86,0,0,1-.38,1,1.82,1.82,0,0,1-.7.65,2.2,2.2,0,0,1-1.07.23,2.05,2.05,0,0,1-1-.23,1.82,1.82,0,0,1-.7-.65,3.09,3.09,0,0,1-.41-1,6.91,6.91,0,0,1-.12-1.35Zm.7.34a4.37,4.37,0,0,0,.38,2,1.23,1.23,0,0,0,1.17.73,1.3,1.3,0,0,0,.73-.19,1.51,1.51,0,0,0,.49-.54,2.66,2.66,0,0,0,.26-.85,6.65,6.65,0,0,0,.08-1.14V72a5.64,5.64,0,0,0-.1-1.18,2.1,2.1,0,0,0-.29-.77,1.2,1.2,0,0,0-.48-.42,1.67,1.67,0,0,0-.69-.13,1.7,1.7,0,0,0-.73.13,1.08,1.08,0,0,0-.48.42,2.11,2.11,0,0,0-.26.77A6.62,6.62,0,0,0,49.22,72Z"></path><path class="cls-1" d="M54.64,69h2a1.1,1.1,0,0,1,.62.19,2,2,0,0,1,.5.46,2.66,2.66,0,0,1,.34.59,1.65,1.65,0,0,1,.13.57,1.37,1.37,0,0,1-.1.43,2.92,2.92,0,0,1-.25.5,2.73,2.73,0,0,1-.36.45,1,1,0,0,1-.41.28c.11.39.24.77.38,1.13s.27.67.4,1,.29.63.43.91l-.24,0-.25,0h-.25c-.12-.27-.25-.56-.38-.87s-.24-.58-.37-.94a11.86,11.86,0,0,1-.39-1.15H55.32v2.92h-.68Zm1.86,3.08a.55.55,0,0,0,.36-.13,1.4,1.4,0,0,0,.31-.33,1.77,1.77,0,0,0,.21-.41,1.05,1.05,0,0,0,.08-.4,1.1,1.1,0,0,0-.08-.41,1.65,1.65,0,0,0-.21-.42,1.3,1.3,0,0,0-.31-.31.55.55,0,0,0-.36-.13H55.32v2.54Z"></path><path class="cls-1" d="M60.75,69.55H59.17a.17.17,0,0,1,0-.07.28.28,0,0,1,0-.09v-.22a.22.22,0,0,1,0-.09.17.17,0,0,1,0-.07H63a.25.25,0,0,0,0,.08v.09s0,.06,0,.1,0,.07,0,.1v.09a.22.22,0,0,0,0,.08H61.44v6h-.69Z"></path><path class="cls-1" d="M68.17,73.63a4.28,4.28,0,0,1-.08.84,1.31,1.31,0,0,1-.28.62,1.17,1.17,0,0,1-.57.38,2.91,2.91,0,0,1-1,.13,3,3,0,0,1-1-.13,1.16,1.16,0,0,1-.58-.38,1.32,1.32,0,0,1-.28-.61,4.32,4.32,0,0,1-.07-.84V69H65v4.75a4.29,4.29,0,0,0,0,.55,1,1,0,0,0,.17.41.75.75,0,0,0,.38.25,2.46,2.46,0,0,0,1.32,0,.76.76,0,0,0,.37-.25.88.88,0,0,0,.16-.41,3,3,0,0,0,0-.55V69h.67Z"></path><path class="cls-1" d="M73.06,75.52c0-.35-.11-.69-.17-1s-.11-.64-.17-1H70.5l-.18,1q-.07.5-.15,1h-.66c.15-1,.32-1.88.51-2.68s.37-1.48.54-2,.41-1.26.61-1.78l.26,0h.65c.2.52.39,1.11.59,1.78s.35,1.25.54,2,.37,1.69.53,2.68h-.68Zm-1.47-6c-.1.28-.2.6-.32,1s-.19.68-.31,1.12-.24.93-.36,1.47h2c-.12-.54-.24-1-.35-1.47S72,70.76,72,70.45s-.22-.68-.31-1Z"></path><path class="cls-1" d="M75.1,69h2a1,1,0,0,1,.61.19,1.82,1.82,0,0,1,.5.46,2.32,2.32,0,0,1,.34.59,1.45,1.45,0,0,1,.13.57,1.32,1.32,0,0,1-.09.43,3.89,3.89,0,0,1-.25.5,2.73,2.73,0,0,1-.36.45,1,1,0,0,1-.42.28c.12.39.24.77.38,1.13s.28.67.41,1,.29.63.43.91l-.25,0-.24,0H78q-.19-.41-.39-.87l-.37-.94c-.13-.35-.26-.73-.39-1.15H75.77v2.92H75.1ZM77,72.09a.55.55,0,0,0,.36-.13,1.4,1.4,0,0,0,.31-.33,1.77,1.77,0,0,0,.21-.41,1.29,1.29,0,0,0,.08-.4,1.34,1.34,0,0,0-.08-.41,1.65,1.65,0,0,0-.21-.42,1.3,1.3,0,0,0-.31-.31.55.55,0,0,0-.36-.13H75.77v2.54Z"></path><path class="cls-1" d="M81,75.52a.47.47,0,0,1-.16,0h-.37l-.17,0V69H81Z"></path><path class="cls-1" d="M86,75.52c0-.35-.11-.69-.17-1s-.11-.64-.17-1H83.4c-.07.31-.12.63-.18,1s-.1.67-.16,1h-.65c.15-1,.32-1.88.51-2.68s.37-1.48.54-2,.41-1.26.61-1.78l.26,0H85c.19.52.39,1.11.59,1.78s.35,1.25.54,2,.37,1.69.53,2.68H86Zm-1.47-6c-.1.28-.21.6-.32,1s-.2.68-.31,1.12-.24.93-.36,1.47h2c-.12-.54-.24-1-.35-1.47s-.22-.81-.32-1.12l-.3-1Z"></path><path class="cls-2" d="M2.06,34.44h.63a.94.94,0,0,0,.25,0l.21,0V28.83H6.29a2.25,2.25,0,0,0,1.33-.43,3.71,3.71,0,0,0,1-1.14,5.71,5.71,0,0,0,.64-1.62,8.25,8.25,0,0,0,.21-1.87,9,9,0,0,0-.21-2,5.68,5.68,0,0,0-.64-1.65,3.55,3.55,0,0,0-1-1.13,2.31,2.31,0,0,0-1.34-.41H1.61V34.4l.2,0A1,1,0,0,0,2.06,34.44ZM3.15,19.93H5.87a1.45,1.45,0,0,1,1,.32,2.23,2.23,0,0,1,.63.83,4.6,4.6,0,0,1,.37,1.22,9.83,9.83,0,0,1,.12,1.47,9.14,9.14,0,0,1-.12,1.41,4.84,4.84,0,0,1-.37,1.22,2.23,2.23,0,0,1-.63.87,1.4,1.4,0,0,1-1,.32H3.15Z"></path><path class="cls-2" d="M17.79,34.27a2.91,2.91,0,0,0,1.33-.93,3.36,3.36,0,0,0,.64-1.5,10.33,10.33,0,0,0,.17-2V18.62a1.69,1.69,0,0,0-.35,0h-.82a2.22,2.22,0,0,0-.37,0v11.5a10.49,10.49,0,0,1-.08,1.34,2.08,2.08,0,0,1-.38,1,1.79,1.79,0,0,1-.84.61,4.41,4.41,0,0,1-1.51.21,4.48,4.48,0,0,1-1.52-.21,1.83,1.83,0,0,1-.87-.61,2.31,2.31,0,0,1-.38-1,8.83,8.83,0,0,1-.09-1.34V18.62a1.62,1.62,0,0,0-.35,0h-.82a2.22,2.22,0,0,0-.37,0V29.83a12.28,12.28,0,0,0,.15,2,3.41,3.41,0,0,0,.64,1.5,3,3,0,0,0,1.33.91,6.76,6.76,0,0,0,2.27.32A6.44,6.44,0,0,0,17.79,34.27Z"></path><path class="cls-2" d="M29.42,34.11c0-.11,0-.22,0-.35v-.27c0-.09,0-.2,0-.32H24V26.86h4.7c0-.08,0-.17,0-.28s0-.21,0-.33V26a1.22,1.22,0,0,0,0-.32H24v-5.7h5.38v-.14a1.86,1.86,0,0,1,0-.22,3.22,3.22,0,0,0,0-.33,2.1,2.1,0,0,0,0-.27,1.28,1.28,0,0,1,0-.19v-.16H22.49V34.4h6.92C29.41,34.32,29.41,34.22,29.42,34.11Z"></path><path class="cls-2" d="M37.8,29.75c-.32-.87-.62-1.78-.87-2.72a2.44,2.44,0,0,0,1-.68,6,6,0,0,0,.82-1.09,6.93,6.93,0,0,0,.57-1.21A3.13,3.13,0,0,0,39.49,23a4,4,0,0,0-.29-1.39,6,6,0,0,0-.79-1.42,4.49,4.49,0,0,0-1.14-1.12,2.45,2.45,0,0,0-1.4-.45h-4.5V34.4l.21,0a1,1,0,0,0,.26,0h.64a.9.9,0,0,0,.23,0l.21,0V27.32h2.47c.29,1,.58,1.93.89,2.79s.6,1.61.85,2.26.6,1.47.89,2.11l.58,0,.55-.07a4.8,4.8,0,0,0,.57-.11c-.33-.69-.67-1.43-1-2.21S38.13,30.63,37.8,29.75Zm-1.34-4a1.29,1.29,0,0,1-.82.32H32.92V19.93h2.72a1.33,1.33,0,0,1,.82.31,2.88,2.88,0,0,1,.71.76,4.73,4.73,0,0,1,.49,1,3.16,3.16,0,0,1,.18,1,3.08,3.08,0,0,1-.18,1,5.15,5.15,0,0,1-.49,1A3.42,3.42,0,0,1,36.46,25.77Z"></path><path class="cls-2" d="M43.83,34.4l.23,0a1,1,0,0,0,.25,0h.63a1,1,0,0,0,.25,0l.23,0V19.93h3.63a1.48,1.48,0,0,1,0-.21,1.65,1.65,0,0,1,0-.21,1.77,1.77,0,0,0,0-.24,2,2,0,0,0,0-.25,1.49,1.49,0,0,1,0-.21,1.28,1.28,0,0,1,0-.19H40.2a.5.5,0,0,0,0,.16,1.27,1.27,0,0,0,0,.22v.53a1.36,1.36,0,0,0,0,.21.54.54,0,0,0,0,.19h3.63Z"></path><path class="cls-2" d="M57.23,34a4.35,4.35,0,0,0,1.61-1.58,7.51,7.51,0,0,0,.87-2.5A19,19,0,0,0,60,26.69v-.83c0-2.55-.41-4.4-1.23-5.57a4.47,4.47,0,0,0-4-1.75,6.32,6.32,0,0,0-2.46.42,3.55,3.55,0,0,0-1.59,1.33,6,6,0,0,0-.86,2.28,17.62,17.62,0,0,0-.26,3.29v.83A16.26,16.26,0,0,0,49.9,30a7.75,7.75,0,0,0,.92,2.5A4.35,4.35,0,0,0,52.43,34a4.72,4.72,0,0,0,2.35.56A5,5,0,0,0,57.23,34ZM52.1,31.51a10.88,10.88,0,0,1-.88-4.83v-.83A18.8,18.8,0,0,1,51.4,23a5.2,5.2,0,0,1,.6-1.87,2.54,2.54,0,0,1,1.09-1,4,4,0,0,1,1.68-.31,3.71,3.71,0,0,1,1.58.31,2.72,2.72,0,0,1,1.12,1A5.57,5.57,0,0,1,58.13,23a15.06,15.06,0,0,1,.23,2.84v.83a19.23,19.23,0,0,1-.18,2.77,7.17,7.17,0,0,1-.61,2.06,3.51,3.51,0,0,1-1.12,1.3,2.91,2.91,0,0,1-1.68.46A2.83,2.83,0,0,1,52.1,31.51Z"></path><path class="cls-2" d="M73,34.05a5.69,5.69,0,0,0,1.78-.94A5.8,5.8,0,0,0,76,31.71a8.53,8.53,0,0,0,.8-1.7,10.82,10.82,0,0,0,.44-1.87,13.16,13.16,0,0,0,.14-1.86A10.93,10.93,0,0,0,77,23.5,7.19,7.19,0,0,0,75.85,21a6,6,0,0,0-2.11-1.75,6.73,6.73,0,0,0-3.13-.67H68V34.4h2.57A7,7,0,0,0,73,34.05Zm-3.37-.88V19.93h.77a5.22,5.22,0,0,1,2.41.52,4.51,4.51,0,0,1,1.69,1.39,6.14,6.14,0,0,1,1,2,8.8,8.8,0,0,1,.33,2.43,13.47,13.47,0,0,1-.23,2.42,6.43,6.43,0,0,1-.83,2.22,4.8,4.8,0,0,1-1.65,1.61,5.23,5.23,0,0,1-2.71.63Z"></path><path class="cls-2" d="M86.3,34.11c0-.11,0-.22,0-.35v-.27a1.89,1.89,0,0,0,0-.32H80.92V26.86h4.69a1.88,1.88,0,0,0,0-.28V26a1.22,1.22,0,0,0,0-.32H80.92v-5.7h5.37v-.14a1.86,1.86,0,0,1,0-.22,3.22,3.22,0,0,0,0-.33,2.1,2.1,0,0,0,0-.27,1.28,1.28,0,0,1,0-.19v-.16H79.38V34.4h6.91C86.29,34.32,86.29,34.22,86.3,34.11Z"></path><path class="cls-2" d="M10.47,49.45a3.5,3.5,0,0,0-1.36-1,3.45,3.45,0,0,0,1.2-.84,4.52,4.52,0,0,0,.81-1.38A6,6,0,0,0,11.5,44a8.4,8.4,0,0,0-.33-2.55,4,4,0,0,0-.94-1.65,3.32,3.32,0,0,0-1.51-.88,7.35,7.35,0,0,0-2-.26H1.6V59.17H7a4.8,4.8,0,0,0,3.55-1.33,6.1,6.1,0,0,0,1.3-4.34A6.24,6.24,0,0,0,11.41,51,5.86,5.86,0,0,0,10.47,49.45ZM3.62,40.33h3a4.53,4.53,0,0,1,1.31.17,1.93,1.93,0,0,1,.9.57,2.79,2.79,0,0,1,.54,1.12A7.91,7.91,0,0,1,9.49,44a10.4,10.4,0,0,1-.13,1.84A2.35,2.35,0,0,1,8.84,47a2.07,2.07,0,0,1-1.06.62A7.18,7.18,0,0,1,6,47.75H3.62Zm5.5,16.35a2.74,2.74,0,0,1-2.26.88H3.62V49.35H6.3a3.4,3.4,0,0,1,2.75,1,5,5,0,0,1,.79,3.16A5.28,5.28,0,0,1,9.12,56.68Z"></path><path class="cls-2" d="M22.92,44.22c-.59-2.1-1.16-4-1.74-5.6l-.35,0h-.42l-.53,0h-.65a7.23,7.23,0,0,0-.76.06c-.61,1.63-1.23,3.5-1.84,5.6Q15.87,46.94,15,50.7c-.57,2.51-1.07,5.34-1.5,8.47l.26,0a1.14,1.14,0,0,0,.28,0h.74a1.72,1.72,0,0,0,.34,0l.33,0c.15-1.13.31-2.2.47-3.22s.33-2,.53-3h6.61c.18,1,.36,2,.53,3s.35,2.09.5,3.22l.3,0a1.66,1.66,0,0,0,.32,0h.82a1.45,1.45,0,0,0,.3,0l.27,0c-.47-3.13-1-6-1.56-8.47S23.43,46,22.92,44.22Zm-6.16,7.12c.35-1.72.7-3.27,1.06-4.64s.67-2.56.94-3.54.65-2.13.95-3h.15l.91,3q.4,1.47.93,3.54c.34,1.37.69,2.92,1,4.64Z"></path><path class="cls-2" d="M36.56,53.12c-.42-1.13-.8-2.32-1.14-3.55a3.16,3.16,0,0,0,1.25-.88,9.14,9.14,0,0,0,1.06-1.43,9.34,9.34,0,0,0,.75-1.57,4.44,4.44,0,0,0,.28-1.36,5.2,5.2,0,0,0-.38-1.81,8.42,8.42,0,0,0-1-1.86,6.21,6.21,0,0,0-1.49-1.45A3.19,3.19,0,0,0,34,38.62H28.19V59.17l.27,0a1.65,1.65,0,0,0,.34,0h.82a1.66,1.66,0,0,0,.32,0l.26,0V50h3.22c.37,1.3.76,2.52,1.17,3.64s.76,2.09,1.1,2.94.78,1.91,1.15,2.75a6.59,6.59,0,0,0,.75-.05,6.93,6.93,0,0,0,.73-.09c.25,0,.5-.08.74-.14-.43-.9-.87-1.86-1.3-2.88C37.38,55.26,37,54.25,36.56,53.12Zm-1.74-5.19a1.69,1.69,0,0,1-1.08.42H30.2v-8h3.54a1.78,1.78,0,0,1,1.08.4,4,4,0,0,1,.92,1A6.09,6.09,0,0,1,36.37,43a4.15,4.15,0,0,1,.24,1.31,3.85,3.85,0,0,1-.24,1.24,5.87,5.87,0,0,1-.63,1.31A4.43,4.43,0,0,1,34.82,47.93Z"></path><path class="cls-2" d="M50,53.12c-.42-1.13-.81-2.32-1.14-3.55a3.2,3.2,0,0,0,1.24-.88,8,8,0,0,0,1.06-1.43,8.68,8.68,0,0,0,.76-1.57,4.44,4.44,0,0,0,.28-1.36,5,5,0,0,0-.39-1.81,8,8,0,0,0-1-1.86,6,6,0,0,0-1.49-1.45,3.19,3.19,0,0,0-1.83-.59H41.59V59.17l.26,0a1.72,1.72,0,0,0,.34,0H43a1.55,1.55,0,0,0,.31,0l.26,0V50h3.22c.38,1.3.76,2.52,1.17,3.64s.77,2.09,1.11,2.94.77,1.91,1.15,2.75a6.9,6.9,0,0,0,.75-.05,6.73,6.73,0,0,0,.72-.09c.26,0,.5-.08.74-.14-.43-.9-.87-1.86-1.3-2.88C50.78,55.26,50.38,54.25,50,53.12Zm-1.75-5.19a1.67,1.67,0,0,1-1.07.42H43.59v-8h3.55a1.76,1.76,0,0,1,1.07.4,3.8,3.8,0,0,1,.92,1A6.12,6.12,0,0,1,49.77,43,4.11,4.11,0,0,1,50,44.34a3.82,3.82,0,0,1-.23,1.24,5.9,5.9,0,0,1-.64,1.31A4.21,4.21,0,0,1,48.21,47.93Z"></path><path class="cls-2" d="M63.87,44.22q-.88-3.15-1.74-5.6l-.36,0h-.41l-.53,0h-.65a7.41,7.41,0,0,0-.77.06q-.91,2.45-1.83,5.6Q56.82,46.94,56,50.7c-.57,2.51-1.08,5.34-1.51,8.47l.26,0a1.29,1.29,0,0,0,.29,0h.74a1.69,1.69,0,0,0,.33,0l.33,0c.16-1.13.31-2.2.47-3.22s.34-2,.53-3H64c.19,1,.36,2,.54,3s.34,2.09.5,3.22l.29,0a1.76,1.76,0,0,0,.33,0h.81a1.55,1.55,0,0,0,.31,0l.27,0c-.47-3.13-1-6-1.57-8.47S64.38,46,63.87,44.22ZM57.7,51.34c.36-1.72.71-3.27,1.06-4.64s.67-2.56,1-3.54.64-2.13.94-3h.15c.27.89.58,1.9.91,3s.59,2.16.94,3.54.69,2.92,1,4.64Z"></path><path class="cls-2" d="M80.73,38.56l-.44,0-.5,0,.06,19.3h-.17l-7-19.3c-.14,0-.34,0-.61,0l-1.19,0H70c-.26,0-.56,0-.89.06V59.17l.44,0h1l.52,0L71.06,39.9h.21l6.9,19.27c.16,0,.38,0,.66,0s.7,0,1.23,0l.83,0a7.36,7.36,0,0,0,.88-.06V38.62l-.47,0Z"></path><path class="cls-2" d="M100.48,57.45H97.83c0-.82,0-1.73,0-2.69,0-.81,0-1.74.06-2.8s0-2.19,0-3.38V48a24.09,24.09,0,0,0-.34-4.28,8,8,0,0,0-1.1-3,4.7,4.7,0,0,0-2-1.72,7.39,7.39,0,0,0-3-.55,8.43,8.43,0,0,0-3.25.55,5,5,0,0,0-2.17,1.72,7.81,7.81,0,0,0-1.23,3,21.33,21.33,0,0,0-.39,4.28v1.09a21.29,21.29,0,0,0,.39,4.2,9.59,9.59,0,0,0,1.2,3.15,5.69,5.69,0,0,0,2.09,2,6.4,6.4,0,0,0,3.06.69h9.27c0-.09,0-.22.06-.38a4.39,4.39,0,0,0,0-.56c0-.13,0-.25,0-.36A3.3,3.3,0,0,0,100.48,57.45Zm-4.61,0H91.2a3.7,3.7,0,0,1-3.48-2.15,13.36,13.36,0,0,1-1.15-6.18V48a20.18,20.18,0,0,1,.29-3.7,6.51,6.51,0,0,1,.88-2.43,3.54,3.54,0,0,1,1.53-1.33,5.3,5.3,0,0,1,2.22-.41,4.47,4.47,0,0,1,2,.41,3.27,3.27,0,0,1,1.36,1.33,7.17,7.17,0,0,1,.77,2.43,24.08,24.08,0,0,1,.23,3.7Z"></path><path class="cls-2" d="M110.48,59a3.66,3.66,0,0,0,1.72-1.21,4.33,4.33,0,0,0,.84-1.95,14,14,0,0,0,.22-2.65V38.62a4.14,4.14,0,0,0-.46,0l-.61,0-.45,0-.48,0v15a12.85,12.85,0,0,1-.11,1.74,2.89,2.89,0,0,1-.48,1.29,2.39,2.39,0,0,1-1.11.8,6.07,6.07,0,0,1-2,.27,6.16,6.16,0,0,1-2-.27,2.4,2.4,0,0,1-1.13-.8,2.9,2.9,0,0,1-.49-1.29,11.23,11.23,0,0,1-.13-1.74v-15l-.45,0-.61,0-.46,0-.48,0v14.6a14.86,14.86,0,0,0,.2,2.64,4.32,4.32,0,0,0,.83,2A3.84,3.84,0,0,0,104.64,59a8.51,8.51,0,0,0,2.94.41A8.34,8.34,0,0,0,110.48,59Z"></path><path class="cls-2" d="M117.12,38.58l-.53,0V59.17l.5,0h1.1a2.29,2.29,0,0,0,.5,0V38.62l-.49,0-.57,0Z"></path><path class="cls-2" d="M123.75,38.59h-.32l-.39,0-.41,0h-.32l-.3,0V59.17h8.45a1.19,1.19,0,0,1,0-.25,2.46,2.46,0,0,1,0-.26,3,3,0,0,0,0-.35c0-.08,0-.18,0-.28a2.5,2.5,0,0,1,0-.25.82.82,0,0,1,0-.22H124V38.62Z"></path><path class="cls-2" d="M134.33,38.59H134l-.39,0-.41,0h-.32l-.3,0V59.17H141a.85.85,0,0,1,0-.25,2.35,2.35,0,0,1,0-.26,3.44,3.44,0,0,0,0-.35c0-.08,0-.18,0-.28a2.26,2.26,0,0,1,0-.25.57.57,0,0,1,0-.22H134.6V38.62Z"></path><path class="cls-2" d="M150.3,38.62l-.35,0h-.42l-.53,0h-.65a7.41,7.41,0,0,0-.77.06c-.6,1.63-1.22,3.5-1.83,5.6q-.76,2.72-1.62,6.48c-.57,2.51-1.08,5.34-1.51,8.47l.27,0a1.14,1.14,0,0,0,.28,0h.74a1.72,1.72,0,0,0,.34,0l.32,0c.16-1.13.32-2.2.47-3.22s.34-2,.54-3h6.61c.18,1,.36,2,.53,3s.34,2.09.5,3.22l.3,0a1.58,1.58,0,0,0,.32,0h.82a1.63,1.63,0,0,0,.31,0l.26,0c-.47-3.13-1-6-1.57-8.47S152.55,46,152,44.22Q151.15,41.07,150.3,38.62Zm-4.43,12.72c.35-1.72.71-3.27,1.06-4.64s.67-2.56.95-3.54.65-2.13.94-3H149c.28.89.58,1.9.92,3s.58,2.16.93,3.54.69,2.92,1,4.64Z"></path><path class="cls-1" d="M173.65,74.58c-50-15.84-82,7.44-82,7.44,29.67-15.26,76.95,0,76.95,0,53.85,12.79,76.93-11.83,76.93-11.83C213.46,87.55,173.65,74.58,173.65,74.58Z"></path><path class="cls-2" d="M220.6,9.75a49.55,49.55,0,0,0-6.5-1.2C202.27,6.64,168,9.62,168,9.62c-52.18,6.75-72.46,19.5-72.46,19.5l-1.09.55S116.19,11.79,192.79,1.4c0,0,36.76-5.62,38.27,8.51a7.67,7.67,0,0,1-1,4.09l-.43.8-4.68,7.91-1.29,2.18c-3.64,6.18-8.14,13.81-12.27,20.85h0l0,.07-.05.09a8.09,8.09,0,0,0-.93,2.42,7,7,0,0,0,.23,3,10.18,10.18,0,0,0,3.27,4.21l0,0A29,29,0,0,1,219.4,61l.06.08a16.72,16.72,0,0,1,2.93,6.64,15.29,15.29,0,0,1,.31,2.88s-.43-5.75-8.33-12.08c-.52-.42-1.08-.85-1.67-1.28l-.12-.1c-.47-.39-3.82-2.63-4.26-3-6-5.09-2.43-10.9-2.43-10.9l14.34-27.45A7.79,7.79,0,0,0,220.6,9.75Z"></path></svg>